<svg width="15" height="13" viewBox="0 0 15 13" fill="none" xmlns="http://www.w3.org/2000/svg">
<g id="instagram 1" clip-path="url(#clip0_173_214)">
<path id="Vector" d="M10.4329 0H4.36325C2.38783 0 0.780762 1.57858 0.780762 3.51898V9.4811C0.780762 11.4214 2.38783 13 4.36325 13H10.433C12.4083 13 14.0154 11.4214 14.0154 9.4811V3.51898C14.0154 1.57858 12.4083 0 10.4329 0V0ZM13.2395 9.4811C13.2395 11.0012 11.9805 12.2379 10.4329 12.2379H4.36325C2.81565 12.2379 1.55663 11.0012 1.55663 9.4811V3.51898C1.55663 1.99881 2.81565 0.762114 4.36325 0.762114H10.433C11.9805 0.762114 13.2395 1.99881 13.2395 3.51898V9.4811Z" fill="#232323"/>
<path id="Vector_2" d="M7.39803 2.94531C5.40262 2.94531 3.7793 4.53986 3.7793 6.49989C3.7793 8.45993 5.40262 10.0545 7.39803 10.0545C9.39344 10.0545 11.0168 8.45993 11.0168 6.49989C11.0168 4.53986 9.39344 2.94531 7.39803 2.94531ZM7.39803 9.29236C5.83054 9.29236 4.55517 8.03969 4.55517 6.49989C4.55517 4.96019 5.83054 3.70743 7.39803 3.70743C8.96562 3.70743 10.2409 4.96019 10.2409 6.49989C10.2409 8.03969 8.96562 9.29236 7.39803 9.29236Z" fill="#232323"/>
<path id="Vector_3" d="M11.1034 1.68311C10.5137 1.68311 10.0341 2.15432 10.0341 2.73344C10.0341 3.31266 10.5137 3.78388 11.1034 3.78388C11.693 3.78388 12.1727 3.31266 12.1727 2.73344C12.1727 2.15422 11.693 1.68311 11.1034 1.68311ZM11.1034 3.02166C10.9416 3.02166 10.8099 2.89233 10.8099 2.73344C10.8099 2.57445 10.9416 2.44522 11.1034 2.44522C11.2652 2.44522 11.3969 2.57445 11.3969 2.73344C11.3969 2.89233 11.2652 3.02166 11.1034 3.02166Z" fill="#232323"/>
</g>
<defs>
<clipPath id="clip0_173_214">
<rect width="13.2346" height="13" fill="white" transform="translate(0.780762)"/>
</clipPath>
</defs>
</svg>
