<svg width="12" height="11" viewBox="0 0 12 11" fill="none" xmlns="http://www.w3.org/2000/svg">
<g id="linkedin 1" clip-path="url(#clip0_173_228)">
<path id="Vector" d="M11.7813 11V10.9996H11.7841V6.96531C11.7841 4.99173 11.3516 3.47144 9.00271 3.47144C7.87353 3.47144 7.11576 4.0801 6.8064 4.65714H6.77374V3.65569H4.54663V10.9996H6.86566V7.36314C6.86566 6.40569 7.05044 5.47985 8.25754 5.47985C9.44692 5.47985 9.46465 6.57252 9.46465 7.42456V11H11.7813Z" fill="#232323"/>
<path id="Vector_2" d="M0.770264 3.65601H3.09209V10.9999H0.770264V3.65601Z" fill="#232323"/>
<path id="Vector_3" d="M1.93039 0C1.18802 0 0.585632 0.591708 0.585632 1.32092C0.585632 2.05013 1.18802 2.65421 1.93039 2.65421C2.67276 2.65421 3.27515 2.05013 3.27515 1.32092C3.27468 0.591708 2.67229 0 1.93039 0V0Z" fill="#232323"/>
</g>
<defs>
<clipPath id="clip0_173_228">
<rect width="11.1985" height="11" fill="white" transform="translate(0.585632)"/>
</clipPath>
</defs>
</svg>
