<svg width="14" height="13" viewBox="0 0 14 13" fill="none" xmlns="http://www.w3.org/2000/svg">
<g id="twitter 1" clip-path="url(#clip0_173_221)">
<g id="Group">
<g id="Group_2">
<path id="Vector" d="M13.8998 2.46919C13.4076 2.68125 12.8832 2.82181 12.3364 2.89006C12.8989 2.56019 13.3282 2.04181 13.53 1.417C13.0056 1.72412 12.4266 1.94106 11.8095 2.06213C11.3116 1.54131 10.6019 1.21875 9.82766 1.21875C8.32553 1.21875 7.11621 2.41638 7.11621 3.88456C7.11621 4.09581 7.13441 4.29894 7.17908 4.49231C4.9234 4.38425 2.92746 3.32231 1.58662 1.70463C1.35253 2.10356 1.21523 2.56019 1.21523 3.05175C1.21523 3.97475 1.69912 4.79294 2.4204 5.26662C1.98449 5.2585 1.55684 5.13419 1.19455 4.93837C1.19455 4.9465 1.19455 4.95706 1.19455 4.96762C1.19455 6.26275 2.13503 7.3385 3.36833 7.58631C3.14748 7.64563 2.90678 7.67406 2.65697 7.67406C2.48327 7.67406 2.30791 7.66431 2.1433 7.62856C2.49485 8.684 3.49241 9.45994 4.67856 9.48512C3.75545 10.1944 2.58335 10.6218 1.31449 10.6218C1.09198 10.6218 0.878569 10.6121 0.665161 10.5852C1.86703 11.3466 3.29141 11.7812 4.82745 11.7812C9.82021 11.7812 12.5499 7.71875 12.5499 4.19737C12.5499 4.07956 12.5457 3.96581 12.5399 3.85287C13.0784 3.4775 13.5309 3.00869 13.8998 2.46919Z" fill="#232323"/>
</g>
</g>
</g>
<defs>
<clipPath id="clip0_173_221">
<rect width="13.2346" height="13" fill="white" transform="translate(0.665161)"/>
</clipPath>
</defs>
</svg>
